<?xml version="1.0" encoding="utf-8"?>
<!-- Generator: Adobe Illustrator 22.0.1, SVG Export Plug-In . SVG Version: 6.00 Build 0)  -->
<svg version="1.1" id="Layer_1" xmlns="http://www.w3.org/2000/svg" xmlns:xlink="http://www.w3.org/1999/xlink" x="0px" y="0px"
	 viewBox="0 0 396.8 396.8" style="enable-background:new 0 0 396.8 396.8;" xml:space="preserve">
<style type="text/css">
	.st0{fill:none;stroke:#000000;stroke-width:13;stroke-miterlimit:10;}
	.st1{fill:none;stroke:#000000;stroke-width:13;stroke-linecap:round;stroke-linejoin:round;stroke-miterlimit:10;}
</style>
<g>
	<path class="st0" d="M178,310.7l-92.7-92.7L236.7,66.5c24.8-24.8,56.4-41.8,90.8-48.9l52.1-10.7c4.7-1,8.8,3.1,7.9,7.8l-9.8,52
		c-6.7,35.6-23.9,68.3-49.5,93.9L178,310.7z"/>
	<circle class="st0" cx="258.7" cy="138.5" r="31.8"/>
	<path class="st0" d="M306,24.8c0,0,6.7,54,65.5,65.5"/>
	<polygon class="st0" points="144.2,318.7 78.6,253.1 105.8,239.3 158,291.5 	"/>
	<polyline class="st0" points="176.3,125.2 137.5,113.1 46.1,204.5 84.9,216.6 	"/>
	<polyline class="st0" points="268.6,217.5 280.6,256.3 189.2,347.7 177.1,308.9 	"/>
	<line class="st1" x1="34.7" y1="322" x2="10.2" y2="346.6"/>
	<line class="st1" x1="54.3" y1="302.4" x2="48.3" y2="308.4"/>
	<line class="st1" x1="73.7" y1="283" x2="64.3" y2="292.4"/>
	<line class="st1" x1="89.1" y1="355" x2="117.4" y2="326.7"/>
	<line class="st1" x1="76.8" y1="367.3" x2="79.3" y2="364.8"/>
	<line class="st1" x1="53.9" y1="390.2" x2="63.2" y2="380.9"/>
	<line class="st1" x1="98.2" y1="304.9" x2="26.4" y2="376.6"/>
</g>
</svg>
